<svg width="1440" height="810" viewBox="0 0 1440 810" fill="none" xmlns="http://www.w3.org/2000/svg">
<g clip-path="url(#clip0_22_1605)">
<rect width="1440" height="810" fill="white"/>
<g opacity="0.26" filter="url(#filter0_d_22_1605)">
<path d="M-15.8457 405.452C-15.8457 239.564 39.048 86.4961 131.662 -36.5765L1309.07 -35.6044C1401.24 87.3017 1455.85 240 1455.85 405.452C1455.85 556.709 1410.21 697.306 1331.95 814.226L106.331 811.651C29.1246 695.244 -15.8457 555.6 -15.8457 405.452Z" fill="url(#paint0_radial_22_1605)"/>
</g>
<g opacity="0.76" filter="url(#filter1_d_22_1605)">
<path d="M75.3521 404.649C75.3521 194.743 175.676 8.2683 330.99 -109.441L1108.53 -109.801C1264.12 7.88703 1364.65 194.528 1364.65 404.649C1364.65 558.575 1310.7 699.901 1220.68 810.75L221.85 813.845C130.312 702.537 75.3521 560.011 75.3521 404.649Z" fill="url(#paint1_radial_22_1605)" shape-rendering="crispEdges"/>
</g>
<rect y="639.236" width="1440" height="172.825" fill="url(#paint2_linear_22_1605)"/>
</g>
<defs>
<filter id="filter0_d_22_1605" x="-265.846" y="-282.577" width="1971.69" height="1350.8" filterUnits="userSpaceOnUse" color-interpolation-filters="sRGB">
<feFlood flood-opacity="0" result="BackgroundImageFix"/>
<feColorMatrix in="SourceAlpha" type="matrix" values="0 0 0 0 0 0 0 0 0 0 0 0 0 0 0 0 0 0 127 0" result="hardAlpha"/>
<feOffset dy="4"/>
<feGaussianBlur stdDeviation="125"/>
<feComposite in2="hardAlpha" operator="out"/>
<feColorMatrix type="matrix" values="0 0 0 0 0.788839 0 0 0 0 0.657919 0 0 0 0 0.945098 0 0 0 1 0"/>
<feBlend mode="normal" in2="BackgroundImageFix" result="effect1_dropShadow_22_1605"/>
<feBlend mode="normal" in="SourceGraphic" in2="effect1_dropShadow_22_1605" result="shape"/>
</filter>
<filter id="filter1_d_22_1605" x="-174.648" y="-355.801" width="1789.3" height="1423.65" filterUnits="userSpaceOnUse" color-interpolation-filters="sRGB">
<feFlood flood-opacity="0" result="BackgroundImageFix"/>
<feColorMatrix in="SourceAlpha" type="matrix" values="0 0 0 0 0 0 0 0 0 0 0 0 0 0 0 0 0 0 127 0" result="hardAlpha"/>
<feOffset dy="4"/>
<feGaussianBlur stdDeviation="125"/>
<feComposite in2="hardAlpha" operator="out"/>
<feColorMatrix type="matrix" values="0 0 0 0 0.788839 0 0 0 0 0.657919 0 0 0 0 0.945098 0 0 0 0.38 0"/>
<feBlend mode="normal" in2="BackgroundImageFix" result="effect1_dropShadow_22_1605"/>
<feBlend mode="normal" in="SourceGraphic" in2="effect1_dropShadow_22_1605" result="shape"/>
</filter>
<radialGradient id="paint0_radial_22_1605" cx="0" cy="0" r="1" gradientUnits="userSpaceOnUse" gradientTransform="translate(750.864 433.031) rotate(-152.755) scale(895.356 895.356)">
<stop stop-color="#F9F9F9"/>
<stop offset="1" stop-color="#F9F9F9"/>
</radialGradient>
<radialGradient id="paint1_radial_22_1605" cx="0" cy="0" r="1" gradientUnits="userSpaceOnUse" gradientTransform="translate(720 404.649) rotate(90) scale(578.922 578.922)">
<stop stop-color="#C9A8F1" stop-opacity="0.58"/>
<stop offset="1" stop-color="#F9F9F9"/>
</radialGradient>
<linearGradient id="paint2_linear_22_1605" x1="720" y1="639.236" x2="720" y2="745.734" gradientUnits="userSpaceOnUse">
<stop stop-color="white" stop-opacity="0"/>
<stop offset="1" stop-color="white"/>
</linearGradient>
<clipPath id="clip0_22_1605">
<rect width="1440" height="810" fill="white"/>
</clipPath>
</defs>
</svg>
